<svg id="visual" viewBox="0 0 900 600" width="900" height="600" xmlns="http://www.w3.org/2000/svg" xmlns:xlink="http://www.w3.org/1999/xlink" version="1.1"><rect width="900" height="600" fill="#212529"></rect><g><g transform="translate(742 469)"><path d="M0 -40.2L34.8 -20.1L34.8 20.1L0 40.2L-34.8 20.1L-34.8 -20.1Z" fill="none" stroke="#00FFFF" stroke-width="2"></path></g><g transform="translate(134 562)"><path d="M0 -39L33.8 -19.5L33.8 19.5L0 39L-33.8 19.5L-33.8 -19.5Z" fill="none" stroke="#00FFFF" stroke-width="2"></path></g><g transform="translate(303 552)"><path d="M0 -22L19.1 -11L19.1 11L0 22L-19.1 11L-19.1 -11Z" stroke="#00FFFF" fill="none" stroke-width="2"></path></g><g transform="translate(850 557)"><path d="M0 -37L32 -18.5L32 18.5L0 37L-32 18.5L-32 -18.5Z" stroke="#00FFFF" fill="none" stroke-width="2"></path></g><g transform="translate(260 61)"><path d="M0 -37L32 -18.5L32 18.5L0 37L-32 18.5L-32 -18.5Z" stroke="#00FFFF" fill="none" stroke-width="2"></path></g><g transform="translate(178 384)"><path d="M0 -28L24.2 -14L24.2 14L0 28L-24.2 14L-24.2 -14Z" stroke="#00FFFF" fill="none" stroke-width="2"></path></g><g transform="translate(42 132)"><path d="M0 -18L15.6 -9L15.6 9L0 18L-15.6 9L-15.6 -9Z" stroke="#00FFFF" fill="none" stroke-width="2"></path></g></g></svg>